<svg xmlns="http://www.w3.org/2000/svg" xmlns:xlink="http://www.w3.org/1999/xlink" width="500" zoomAndPan="magnify" viewBox="0 0 375 374.999991" height="500" preserveAspectRatio="xMidYMid meet" version="1.0"><defs><clipPath id="f01295ade9"><path d="M 18.75 206 L 227 206 L 227 296 L 18.75 296 Z M 18.75 206 " clip-rule="nonzero"/></clipPath><clipPath id="f0376dc1bb"><path d="M 72 217 L 356.25 217 L 356.25 344.929688 L 72 344.929688 Z M 72 217 " clip-rule="nonzero"/></clipPath></defs><g clip-path="url(#f01295ade9)"><path fill="#87cb28" d="M 226.171875 220.363281 C 175.289062 199.371094 77.75 203.882812 18.746094 227.75 C 29.234375 253.792969 45.757812 276.804688 66.597656 295.019531 C 152.5 229.972656 226.171875 220.363281 226.171875 220.363281 " fill-opacity="1" fill-rule="nonzero"/></g><g clip-path="url(#f0376dc1bb)"><path fill="#33443c" d="M 72.300781 302.601562 C 103.183594 328.996094 143.226562 344.957031 186.941406 344.957031 C 266.8125 344.957031 334.4375 291.6875 356.253906 218.820312 C 314.277344 213.804688 179.910156 224.667969 72.300781 302.601562 " fill-opacity="1" fill-rule="nonzero"/></g><path fill="#60941a" d="M 293.882812 95.527344 C 282.617188 125.671875 224.246094 161.136719 261.859375 202.839844 C 261.859375 202.839844 293.269531 175.667969 291.636719 126.777344 C 291.636719 126.777344 301.761719 169.042969 270.089844 201.589844 C 332.679688 186.535156 293.882812 95.527344 293.882812 95.527344 " fill-opacity="1" fill-rule="nonzero"/><path fill="#87cb28" d="M 232.410156 30.042969 C 234.085938 62.183594 194.683594 117.96875 245.800781 141.230469 C 245.800781 141.230469 263.78125 103.792969 242.800781 59.597656 C 242.800781 59.597656 268.929688 94.335938 252.847656 136.804688 C 304.257812 98.054688 232.410156 30.042969 232.410156 30.042969 " fill-opacity="1" fill-rule="nonzero"/><path fill="#87cb28" d="M 208.21875 125.09375 C 216.003906 145.921875 256.339844 170.429688 230.347656 199.246094 C 230.347656 199.246094 208.640625 180.472656 209.769531 146.6875 C 209.769531 146.6875 202.773438 175.898438 224.660156 198.382812 C 181.40625 187.980469 208.21875 125.09375 208.21875 125.09375 " fill-opacity="1" fill-rule="nonzero"/></svg>