<svg xmlns="http://www.w3.org/2000/svg" xmlns:xlink="http://www.w3.org/1999/xlink" width="150" zoomAndPan="magnify" viewBox="0 0 375 374.999991" height="150" preserveAspectRatio="xMidYMid meet" version="1.0"><defs><g/><clipPath id="6aea208b98"><path d="M 8.910156 122.171875 L 129.625 122.171875 L 129.625 252.671875 L 8.910156 252.671875 Z M 8.910156 122.171875 " clip-rule="nonzero"/></clipPath><clipPath id="5108fa0263"><path d="M 32 129 L 129.625 129 L 129.625 252.671875 L 32 252.671875 Z M 32 129 " clip-rule="nonzero"/></clipPath></defs><g fill="#008037" fill-opacity="1"><g transform="translate(148.005414, 207.114399)"><g><path d="M 35.828125 -15.464844 L 20.214844 -15.464844 L 20.214844 -12.074219 L 31.15625 -12.074219 C 30.929688 -5.800781 25.398438 -2.980469 19.457031 -2.980469 C 11.703125 -2.980469 6.335938 -7.28125 6.335938 -14.703125 C 6.335938 -22.171875 11.742188 -26.386719 19.105469 -26.386719 C 24.925781 -26.386719 29.328125 -23.835938 30.601562 -19.167969 L 30.765625 -19.167969 L 35.003906 -20.277344 C 33.113281 -26.304688 27.515625 -30.292969 19.269531 -30.292969 C 8.660156 -30.292969 1.5 -24.371094 1.5 -14.601562 C 1.5 -5.410156 8.554688 0.84375 18.816406 0.84375 C 25.378906 0.84375 31.425781 -2.632812 32.617188 -7.566406 C 32.617188 -5.46875 32.597656 -2.425781 32.96875 0 L 36.359375 0 C 35.703125 -3.722656 35.828125 -10.40625 35.828125 -15.464844 Z M 35.828125 -15.464844 "/></g></g><g transform="translate(185.764806, 207.114399)"><g><path d="M 4.15625 0 L 8.597656 0 L 8.597656 -9.441406 C 8.597656 -12.710938 10.980469 -18.304688 16.207031 -18.304688 C 20.9375 -18.304688 21.921875 -15.320312 21.636719 -10.386719 L 25.152344 -10.878906 C 25.976562 -17.050781 24.289062 -21.71875 16.96875 -21.71875 C 12.9375 -21.71875 9.171875 -18.570312 8.269531 -14.808594 L 7.425781 -20.996094 L 4.15625 -20.996094 Z M 4.15625 0 "/></g></g><g transform="translate(211.719247, 207.114399)"><g><path d="M 15.054688 0.699219 C 20.214844 0.699219 24.144531 -1.378906 26.59375 -5.386719 L 23.320312 -7.011719 L 23.179688 -7.035156 C 21.613281 -3.886719 18.898438 -2.589844 15.074219 -2.589844 C 9.273438 -2.589844 5.285156 -5.71875 5.285156 -9.441406 L 26.796875 -9.441406 L 26.796875 -10.652344 C 26.796875 -16.742188 22.109375 -21.71875 14.4375 -21.71875 C 6.191406 -21.71875 1.152344 -17.378906 1.152344 -10.324219 C 1.152344 -3.230469 6.992188 0.699219 15.054688 0.699219 Z M 5.328125 -12.378906 C 5.636719 -16.101562 9.316406 -18.632812 14.355469 -18.632812 C 19.703125 -18.632812 22.355469 -15.753906 22.480469 -12.378906 Z M 5.328125 -12.378906 "/></g></g><g transform="translate(239.977093, 207.114399)"><g><path d="M 15.054688 0.699219 C 20.214844 0.699219 24.144531 -1.378906 26.59375 -5.386719 L 23.320312 -7.011719 L 23.179688 -7.035156 C 21.613281 -3.886719 18.898438 -2.589844 15.074219 -2.589844 C 9.273438 -2.589844 5.285156 -5.71875 5.285156 -9.441406 L 26.796875 -9.441406 L 26.796875 -10.652344 C 26.796875 -16.742188 22.109375 -21.71875 14.4375 -21.71875 C 6.191406 -21.71875 1.152344 -17.378906 1.152344 -10.324219 C 1.152344 -3.230469 6.992188 0.699219 15.054688 0.699219 Z M 5.328125 -12.378906 C 5.636719 -16.101562 9.316406 -18.632812 14.355469 -18.632812 C 19.703125 -18.632812 22.355469 -15.753906 22.480469 -12.378906 Z M 5.328125 -12.378906 "/></g></g><g transform="translate(268.234939, 207.114399)"><g><path d="M 4.15625 0 L 8.597656 0 L 8.597656 -8.945312 C 8.597656 -14.726562 13.101562 -18.304688 17.441406 -18.304688 C 22.519531 -18.304688 24.804688 -15.15625 24.804688 -9.191406 L 24.804688 0 L 29.246094 0 L 29.246094 -9.417969 C 29.246094 -16.824219 26.425781 -21.71875 18.921875 -21.71875 C 14.109375 -21.71875 9.851562 -19.207031 8.019531 -14.664062 L 7.34375 -20.996094 L 4.15625 -20.996094 Z M 4.15625 0 "/></g></g><g transform="translate(301.531483, 207.114399)"><g><path d="M 7.238281 7.917969 C 11.105469 7.917969 13.203125 5.222656 15.652344 0.71875 L 27.230469 -20.996094 L 22.539062 -20.996094 L 14.066406 -4.339844 L 4.855469 -20.996094 L -0.0820312 -20.996094 L 11.90625 -0.636719 L 11.414062 0.453125 C 10.425781 2.570312 9.007812 4.710938 6.582031 4.710938 C 4.9375 4.710938 3.578125 4.011719 2.632812 3.433594 L 1.378906 5.738281 C 2.734375 6.867188 4.996094 7.917969 7.238281 7.917969 Z M 7.238281 7.917969 "/></g></g></g><g clip-path="url(#6aea208b98)"><path fill="#5caf38" d="M 30.417969 221.96875 L 17.011719 216.113281 L 19.199219 214.914062 L 11.582031 208.214844 C 11.582031 208.214844 13.980469 206.871094 13.414062 206.589844 C 12.851562 206.308594 9.886719 202.5 9.886719 202.5 L 10.242188 197.207031 L 12.214844 198.054688 L 8.898438 186.765625 L 13.0625 188.667969 L 9.324219 176.675781 L 13.273438 179.214844 C 13.273438 179.214844 13.132812 170.46875 13.839844 169.691406 C 14.542969 168.914062 14.683594 167.574219 14.683594 167.574219 L 14.96875 169.339844 L 18.285156 161.011719 L 19.339844 164.542969 C 21.660156 172.265625 28.65625 153.773438 34.722656 150.640625 L 38.671875 156.5 C 38.671875 156.5 46.644531 150.570312 48.128906 148.949219 C 49.609375 147.328125 51.160156 147.183594 51.160156 147.183594 L 50.597656 149.65625 L 61.957031 144.714844 L 61.320312 147.042969 C 61.320312 147.042969 65.976562 145.808594 68.515625 144.890625 C 71.054688 143.972656 72.042969 143.164062 72.042969 143.164062 L 71.726562 145 C 71.726562 145 75.253906 144.1875 76.417969 143.765625 C 77.582031 143.339844 79.980469 142 79.980469 142 L 79.945312 144.644531 C 79.945312 144.644531 83.679688 143.972656 85.304688 142.953125 C 86.929688 141.929688 90.101562 140.238281 90.101562 140.238281 L 89.574219 143.199219 C 89.574219 143.199219 95.816406 140.554688 96.449219 140.097656 C 97.085938 139.640625 99.027344 137.871094 99.027344 137.871094 L 99.699219 139.953125 C 99.699219 139.953125 104.601562 137.980469 105.414062 136.851562 C 106.226562 135.722656 108.660156 134.277344 108.660156 134.277344 L 109.398438 136.710938 L 115.394531 132.546875 C 115.394531 132.546875 115.605469 134.980469 117.191406 134.3125 C 118.78125 133.640625 122.835938 129.300781 122.835938 129.300781 L 129.820312 122.171875 C 129.820312 122.171875 124.527344 134.027344 124.878906 135.507812 C 125.234375 136.988281 126.644531 135.929688 126.644531 135.929688 L 124.667969 147.007812 C 124.667969 147.007812 125.234375 146.441406 125.445312 147.855469 C 125.65625 149.265625 124.738281 151.3125 124.386719 153.003906 C 124.035156 154.699219 123.960938 157.589844 123.960938 157.589844 C 123.960938 157.589844 124.949219 157.449219 125.234375 158.085938 C 125.515625 158.71875 123.890625 165.703125 123.820312 167.609375 C 123.75 169.511719 124.035156 170.855469 124.035156 170.855469 L 127.492188 169.9375 C 127.492188 169.9375 127.5625 172.617188 127.5625 176.003906 C 127.5625 179.390625 127.914062 185.457031 127.914062 185.457031 L 129.535156 184.613281 C 129.535156 184.613281 128.761719 190.679688 127.5625 193.21875 C 126.363281 195.757812 126.644531 200.699219 126.644531 200.699219 L 128.40625 199.921875 C 128.40625 199.921875 127.632812 203.027344 126.078125 207.824219 C 124.527344 212.621094 124.105469 213.113281 124.5625 213.152344 C 125.019531 213.183594 126.148438 212.972656 126.148438 212.972656 C 126.148438 212.972656 121.207031 223.800781 122.761719 224.367188 C 124.3125 224.929688 124.628906 224.191406 124.628906 224.191406 C 124.628906 224.191406 120.464844 227.257812 119.089844 228.773438 C 117.714844 230.292969 117.324219 231.527344 117.46875 232.019531 C 117.609375 232.515625 118.171875 233.113281 118.171875 233.398438 C 118.171875 233.679688 114.714844 236.042969 112.988281 237.558594 C 111.257812 239.074219 108.261719 240.378906 108.050781 241.085938 C 107.835938 241.789062 108.824219 242.847656 108.824219 242.847656 C 108.824219 242.847656 106.851562 244.964844 103.746094 245.671875 C 100.640625 246.375 97.394531 247.152344 97.394531 247.152344 L 100.078125 248.917969 C 100.078125 248.917969 93.164062 250.292969 90.871094 250.082031 C 88.578125 249.871094 83.816406 250.433594 83.816406 250.433594 C 83.816406 250.433594 83.074219 250.257812 83.25 251.070312 C 83.425781 251.882812 83.816406 252.761719 83.816406 252.761719 C 83.816406 252.761719 77.292969 252.339844 73.09375 252.199219 C 68.894531 252.058594 65.472656 250.402344 65.472656 250.402344 L 64.941406 252.832031 C 64.941406 252.832031 60.003906 250.152344 58.097656 249.023438 C 56.195312 247.894531 52.03125 245.496094 51.394531 244.929688 C 50.761719 244.367188 49.84375 243.660156 49.84375 243.660156 L 48.855469 246.128906 C 48.855469 246.128906 44.550781 241.617188 43.140625 239.144531 C 41.730469 236.675781 39.261719 232.300781 39.261719 232.300781 L 38.0625 234.773438 C 38.0625 234.773438 34.746094 231.246094 34.675781 228.421875 C 34.605469 225.601562 34.957031 224.046875 33.828125 225.105469 C 32.699219 226.164062 26.207031 234.277344 23.667969 241.046875 C 21.128906 247.820312 16.613281 250.078125 16.613281 250.078125 L 14.636719 246.691406 C 14.636719 246.691406 29.484375 227.667969 29.949219 224.820312 C 30.417969 221.96875 30.417969 221.96875 30.417969 221.96875 Z M 30.417969 221.96875 " fill-opacity="1" fill-rule="evenodd"/></g><g clip-path="url(#5108fa0263)"><path fill="#008037" d="M 124.878906 135.507812 C 124.878906 135.507812 125.46875 136.144531 126.023438 136.242188 C 126.570312 136.339844 125.226562 143.882812 125.226562 143.882812 L 124.671875 147.007812 C 124.671875 147.007812 125.25 149.90625 125.089844 150.453125 C 124.933594 151.003906 123.996094 156.71875 123.976562 157.152344 C 123.960938 157.585938 125.21875 157.453125 125.234375 158.082031 C 125.25 158.710938 123.65625 167.921875 123.625 168.859375 C 123.585938 169.792969 123.851562 170.867188 123.851562 170.867188 L 127.199219 170.011719 L 127.558594 176 C 127.558594 176 127.648438 184.890625 127.78125 185.171875 C 127.910156 185.457031 127.910156 185.457031 127.910156 185.457031 L 129.386719 184.90625 C 129.386719 184.90625 127.96875 192.277344 127.683594 192.933594 C 127.398438 193.585938 126.367188 197.179688 126.367188 198.519531 C 126.367188 199.863281 126.636719 200.695312 126.636719 200.695312 L 128.308594 200.285156 C 128.308594 200.285156 125.226562 210.320312 124.839844 211.472656 C 124.449219 212.625 124.253906 213.335938 124.253906 213.335938 L 125.847656 213.023438 C 125.847656 213.023438 122.488281 220.882812 122.488281 222.011719 C 122.492188 223.140625 121.863281 223.789062 122.277344 224.058594 C 122.691406 224.328125 124.058594 224.613281 124.058594 224.613281 C 124.058594 224.613281 119.003906 228.785156 118.574219 229.382812 C 118.148438 229.984375 117.429688 231.496094 117.515625 232.152344 C 117.601562 232.804688 118.199219 233.582031 118.199219 233.582031 C 118.199219 233.582031 112.414062 238.417969 110.742188 239.292969 C 109.066406 240.171875 108.421875 240.632812 108.421875 240.632812 C 108.421875 240.632812 107.867188 241.679688 108.019531 242.011719 C 108.175781 242.34375 108.707031 242.957031 108.707031 242.957031 C 108.707031 242.957031 105.203125 245.320312 103.054688 245.816406 C 100.902344 246.3125 97.71875 247.246094 97.71875 247.246094 L 99.832031 249.0625 C 99.832031 249.0625 95.1875 249.738281 94.890625 249.78125 C 94.589844 249.820312 92.832031 249.910156 92.832031 249.910156 C 92.832031 249.910156 91.3125 249.820312 90.167969 249.839844 C 89.019531 249.855469 83.59375 250.410156 83.59375 250.410156 C 83.59375 250.410156 83.21875 250.671875 83.308594 251.3125 C 83.398438 251.949219 83.601562 252.738281 83.601562 252.738281 C 83.601562 252.738281 72.859375 252.253906 71.65625 252.082031 C 70.457031 251.910156 65.46875 250.386719 65.46875 250.386719 L 65.003906 252.539062 C 65.003906 252.539062 54.460938 247.253906 53.414062 246.242188 C 52.367188 245.222656 49.84375 243.652344 49.84375 243.652344 L 48.761719 246.019531 L 45.804688 242.523438 L 43.898438 240.074219 C 43.898438 240.074219 40.488281 234.804688 40.171875 233.902344 C 39.859375 233 39.261719 232.292969 39.261719 232.292969 L 38.0625 234.761719 C 38.0625 234.761719 35.082031 231.023438 34.878906 229.621094 C 34.671875 228.222656 34.347656 224.765625 34.347656 224.765625 L 32.261719 226.910156 C 32.261719 226.910156 37.660156 222.011719 43.15625 213.265625 C 48.65625 204.523438 59.414062 193.898438 59.414062 193.898438 C 59.414062 193.898438 91.058594 165.347656 94.53125 160.328125 C 98.003906 155.308594 104.777344 150.019531 104.777344 150.019531 C 104.777344 150.019531 117.617188 138.976562 118.992188 137.246094 C 120.371094 135.519531 125.203125 129.222656 125.203125 129.222656 Z M 124.878906 135.507812 " fill-opacity="1" fill-rule="evenodd"/></g><path fill="#c9e265" d="M 31.648438 225.734375 C 31.648438 225.734375 35.949219 220.652344 38.914062 221.921875 C 85.289062 241.792969 73.28125 240.457031 122.441406 215.007812 C 122.441406 215.007812 109.179688 220.652344 105.652344 222.207031 C 93.195312 227.6875 85.601562 234.605469 72.351562 233.28125 C 56.636719 231.710938 52.207031 224.882812 37.503906 219.738281 C 37.503906 219.738281 47.804688 207.882812 48.933594 206.894531 C 50.0625 205.90625 54.433594 208.164062 59.234375 209.71875 C 64.03125 211.269531 80.535156 210.140625 84.347656 210.140625 C 88.160156 210.140625 99.871094 202.027344 105.515625 198.78125 C 111.160156 195.535156 125.128906 185.800781 125.128906 185.800781 C 125.128906 185.800781 120.332031 187.636719 117.367188 189.328125 C 114.40625 191.023438 97.828125 201.25 96.132812 202.875 C 94.441406 204.496094 89.148438 207.460938 86.328125 208.308594 C 83.503906 209.152344 74.332031 209.152344 72.710938 209.367188 C 71.085938 209.578125 62.199219 208.871094 61.5625 208.871094 C 60.929688 208.871094 60.714844 209.082031 57.332031 207.671875 C 53.945312 206.261719 52.25 205.695312 51.332031 205.554688 C 50.417969 205.414062 50.558594 204.214844 50.558594 204.214844 C 50.558594 204.214844 55 199.980469 56.058594 198.359375 C 57.117188 196.738281 59.816406 194.480469 59.816406 194.480469 C 59.816406 194.480469 64.660156 194.476562 72.355469 194.195312 C 80.050781 193.917969 86.890625 193.351562 91.96875 190.386719 C 97.046875 187.421875 106.078125 181.074219 108.761719 179.378906 C 111.441406 177.6875 122.164062 170.207031 122.164062 170.207031 C 122.164062 170.207031 116.804688 172.183594 114.40625 173.453125 C 112.003906 174.722656 108.125 178.25 107.136719 178.957031 C 106.148438 179.664062 98.035156 185.304688 96.660156 186.222656 C 95.285156 187.140625 89.960938 190.421875 89.535156 190.558594 C 89.113281 190.699219 83.679688 192.078125 79.515625 192.78125 C 75.355469 193.488281 60.203125 193.59375 60.203125 193.59375 C 60.203125 193.59375 65.617188 187.914062 68.441406 186.222656 C 71.261719 184.527344 79.445312 178.320312 82.195312 173.453125 C 84.949219 168.582031 90.097656 164.632812 90.097656 164.632812 C 90.097656 164.632812 91.296875 166.253906 96.375 164.84375 C 101.457031 163.433594 106.394531 160.328125 109.921875 157.367188 C 113.449219 154.402344 123.046875 147.769531 123.046875 147.769531 C 123.046875 147.769531 110.769531 154.753906 108.792969 156.09375 C 106.820312 157.4375 99.058594 162.515625 97.363281 163.152344 C 95.671875 163.785156 94.191406 164.351562 92.285156 163.574219 C 90.378906 162.796875 90.449219 164.351562 94.542969 160.328125 C 98.632812 156.308594 108.15625 147.980469 110.414062 146.148438 C 112.671875 144.3125 122.550781 134.296875 122.550781 134.296875 L 125.511719 128.652344 C 125.511719 128.652344 121.136719 134.859375 116.480469 138.386719 C 111.824219 141.914062 107.308594 146.851562 105.050781 148.476562 C 102.792969 150.097656 98.066406 153.554688 96.796875 155.320312 C 95.527344 157.082031 92.351562 160.753906 91.789062 161.105469 C 91.222656 161.457031 89.179688 162.726562 89.179688 162.726562 C 89.179688 162.726562 88.894531 160.679688 90.589844 155.671875 C 92.28125 150.664062 97.363281 141.066406 97.363281 141.066406 C 97.363281 141.066406 93.976562 145.019531 92.351562 148.195312 C 90.730469 151.367188 88.191406 156.308594 88.121094 158.28125 C 88.050781 160.257812 86.777344 163.996094 86.777344 163.996094 C 86.777344 163.996094 85.085938 166.464844 83.535156 168.441406 C 81.980469 170.414062 78.382812 175.566406 76.265625 177.46875 C 74.148438 179.375 68.292969 184.597656 68.292969 184.597656 C 68.292969 184.597656 68.648438 185.796875 69.421875 172.320312 C 70.195312 158.847656 79.945312 144.644531 79.945312 144.644531 C 79.945312 144.644531 73.300781 153.839844 71.75 156.800781 C 70.195312 159.765625 67.9375 165.691406 67.65625 169.640625 C 67.375 173.59375 66.527344 185.585938 66.527344 185.585938 C 66.527344 185.585938 61.359375 190.648438 59.101562 193.042969 C 56.84375 195.441406 54.746094 197.929688 53.757812 198.917969 C 52.769531 199.90625 50.792969 202.023438 50.792969 202.023438 C 50.792969 202.023438 47.972656 200.046875 47.972656 194.683594 C 47.972656 189.324219 52.347656 176.484375 53.050781 169.851562 C 53.757812 163.21875 61.660156 149.25 61.660156 149.25 C 61.660156 149.25 51.359375 165.195312 51.21875 168.863281 C 51.078125 172.53125 49.101562 180.996094 47.972656 185.65625 C 46.84375 190.3125 45.714844 195.25 45.996094 197.507812 C 46.28125 199.765625 49.242188 203.011719 49.242188 203.011719 C 49.242188 203.011719 48.785156 204.597656 47.867188 205.9375 C 46.949219 207.277344 41.164062 212.710938 41.164062 212.710938 L 34.710938 219.058594 C 34.710938 219.058594 33.917969 223.160156 32.59375 220.042969 C 25.679688 203.804688 18.550781 198.65625 29.558594 176.800781 C 33.175781 169.617188 34.78125 157.609375 34.78125 157.609375 C 34.78125 157.609375 28.851562 168.898438 28.851562 172.285156 C 28.851562 175.671875 22.503906 187.382812 22.644531 190.132812 C 22.785156 192.886719 22.574219 201.417969 22.644531 203.398438 C 22.984375 212.882812 31.320312 209.851562 31.039062 222.726562 C 30.976562 225.664062 27.097656 231.804688 27.097656 231.804688 C 27.097656 231.804688 29.585938 229.738281 30.617188 227.734375 C 31.648438 225.734375 31.648438 225.734375 31.648438 225.734375 Z M 31.648438 225.734375 " fill-opacity="1" fill-rule="evenodd"/></svg>