<svg xmlns="http://www.w3.org/2000/svg" xmlns:xlink="http://www.w3.org/1999/xlink" width="500" zoomAndPan="magnify" viewBox="0 0 375 374.999991" height="500" preserveAspectRatio="xMidYMid meet" version="1.0"><defs><g/><clipPath id="d01cbedf4a"><path d="M 104.4375 156 L 207 156 L 207 200 L 104.4375 200 Z M 104.4375 156 " clip-rule="nonzero"/></clipPath><clipPath id="38e72dbdc5"><path d="M 130 161 L 270.1875 161 L 270.1875 224.246094 L 130 224.246094 Z M 130 161 " clip-rule="nonzero"/></clipPath></defs><g clip-path="url(#d01cbedf4a)"><path fill="#87cb28" d="M 206.527344 162.726562 C 181.484375 152.394531 133.476562 154.613281 104.4375 166.359375 C 109.597656 179.179688 117.730469 190.503906 127.988281 199.46875 C 170.269531 167.453125 206.527344 162.726562 206.527344 162.726562 " fill-opacity="1" fill-rule="nonzero"/></g><g clip-path="url(#38e72dbdc5)"><path fill="#33443c" d="M 130.792969 203.203125 C 145.996094 216.195312 165.707031 224.046875 187.21875 224.046875 C 226.53125 224.046875 259.816406 197.832031 270.554688 161.964844 C 249.894531 159.496094 183.757812 164.84375 130.792969 203.203125 " fill-opacity="1" fill-rule="nonzero"/></g><path fill="#60941a" d="M 239.855469 101.28125 C 234.308594 116.121094 205.582031 133.574219 224.09375 154.101562 C 224.09375 154.101562 239.554688 140.726562 238.75 116.664062 C 238.75 116.664062 243.730469 137.46875 228.144531 153.484375 C 258.949219 146.074219 239.855469 101.28125 239.855469 101.28125 " fill-opacity="1" fill-rule="nonzero"/><path fill="#87cb28" d="M 209.597656 69.054688 C 210.425781 84.871094 191.03125 112.328125 216.1875 123.777344 C 216.1875 123.777344 225.039062 105.351562 214.714844 83.597656 C 214.714844 83.597656 227.574219 100.695312 219.660156 121.597656 C 244.960938 102.527344 209.597656 69.054688 209.597656 69.054688 " fill-opacity="1" fill-rule="nonzero"/><path fill="#87cb28" d="M 197.691406 115.835938 C 201.523438 126.085938 221.375 138.148438 208.585938 152.332031 C 208.585938 152.332031 197.898438 143.09375 198.457031 126.464844 C 198.457031 126.464844 195.011719 140.839844 205.785156 151.90625 C 184.496094 146.785156 197.691406 115.835938 197.691406 115.835938 " fill-opacity="1" fill-rule="nonzero"/><g fill="#33443c" fill-opacity="1"><g transform="translate(88.418138, 276.16893)"><g><path d="M 14.046875 0.46875 C 10.265625 0.46875 7.226562 -0.617188 4.9375 -2.796875 C 2.644531 -4.984375 1.5 -7.929688 1.5 -11.640625 C 1.5 -15.347656 2.644531 -18.285156 4.9375 -20.453125 C 7.226562 -22.628906 10.332031 -23.71875 14.25 -23.71875 C 16.019531 -23.71875 17.734375 -23.546875 19.390625 -23.203125 C 21.054688 -22.859375 22.398438 -22.429688 23.421875 -21.921875 L 23.484375 -16.203125 L 23.1875 -16.203125 C 22.613281 -18.359375 21.628906 -19.914062 20.234375 -20.875 C 18.835938 -21.84375 17.175781 -22.328125 15.25 -22.328125 C 12.570312 -22.328125 10.507812 -21.367188 9.0625 -19.453125 C 7.625 -17.535156 6.90625 -14.910156 6.90625 -11.578125 C 6.90625 -8.242188 7.5625 -5.632812 8.875 -3.75 C 10.195312 -1.875 12.066406 -0.9375 14.484375 -0.9375 C 16.234375 -0.9375 17.695312 -1.429688 18.875 -2.421875 C 19.445312 -2.929688 19.863281 -3.53125 20.125 -4.21875 L 20.125 -9.296875 C 20.125 -9.785156 19.972656 -10.15625 19.671875 -10.40625 C 19.378906 -10.664062 18.957031 -10.796875 18.40625 -10.796875 L 17.875 -10.796875 L 17.875 -11.125 L 27.203125 -11.125 L 27.203125 -10.796875 L 26.703125 -10.796875 C 26.171875 -10.796875 25.757812 -10.664062 25.46875 -10.40625 C 25.1875 -10.15625 25.046875 -9.785156 25.046875 -9.296875 L 25.046875 -3.8125 C 24.179688 -2.6875 22.75 -1.691406 20.75 -0.828125 C 18.757812 0.0351562 16.523438 0.46875 14.046875 0.46875 Z M 14.046875 0.46875 "/></g></g></g><g fill="#33443c" fill-opacity="1"><g transform="translate(117.018086, 276.16893)"><g><path d="M 10.5625 -21.796875 L 9.140625 -21.796875 C 9.085938 -21.796875 9.050781 -21.796875 9.03125 -21.796875 L 9.03125 -2.421875 C 9.050781 -1.847656 9.265625 -1.351562 9.671875 -0.9375 C 10.085938 -0.53125 10.582031 -0.328125 11.15625 -0.328125 L 11.59375 -0.328125 L 11.59375 0 L 1.5 0 L 1.5 -0.328125 L 1.921875 -0.328125 C 2.722656 -0.328125 3.332031 -0.671875 3.75 -1.359375 C 3.925781 -1.671875 4.023438 -2.015625 4.046875 -2.390625 L 4.046875 -20.828125 C 4.023438 -21.398438 3.8125 -21.890625 3.40625 -22.296875 C 3 -22.710938 2.503906 -22.921875 1.921875 -22.921875 L 1.5 -22.921875 L 1.5 -23.25 L 12.890625 -23.25 C 15.035156 -23.25 16.851562 -22.785156 18.34375 -21.859375 C 19.09375 -21.390625 19.6875 -20.738281 20.125 -19.90625 C 20.570312 -19.082031 20.796875 -18 20.796875 -16.65625 C 20.796875 -15.320312 20.328125 -14.03125 19.390625 -12.78125 C 18.460938 -11.539062 17.113281 -10.832031 15.34375 -10.65625 C 16.632812 -10.238281 17.765625 -9.265625 18.734375 -7.734375 C 21.128906 -3.910156 22.898438 -1.628906 24.046875 -0.890625 C 24.628906 -0.535156 25.347656 -0.347656 26.203125 -0.328125 L 26.203125 0 L 22.953125 0 C 21.023438 0 19.425781 -0.253906 18.15625 -0.765625 C 16.882812 -1.273438 15.878906 -2.171875 15.140625 -3.453125 C 14.722656 -4.179688 13.804688 -6.078125 12.390625 -9.140625 C 11.765625 -10.484375 11.007812 -11.222656 10.125 -11.359375 L 10.125 -11.6875 L 11.15625 -11.6875 C 12.15625 -11.6875 13.035156 -11.984375 13.796875 -12.578125 C 14.566406 -13.179688 15.082031 -14.160156 15.34375 -15.515625 C 15.4375 -15.972656 15.484375 -16.335938 15.484375 -16.609375 C 15.484375 -18.421875 15.113281 -19.734375 14.375 -20.546875 C 13.644531 -21.359375 12.707031 -21.773438 11.5625 -21.796875 C 11.34375 -21.796875 11.007812 -21.796875 10.5625 -21.796875 Z M 10.5625 -21.796875 "/></g></g></g><g fill="#33443c" fill-opacity="1"><g transform="translate(142.661717, 276.16893)"><g><path d="M 1.828125 -0.328125 C 2.398438 -0.328125 2.890625 -0.53125 3.296875 -0.9375 C 3.710938 -1.351562 3.929688 -1.847656 3.953125 -2.421875 L 3.953125 -20.921875 C 3.910156 -21.503906 3.742188 -21.925781 3.453125 -22.1875 C 2.921875 -22.675781 2.378906 -22.921875 1.828125 -22.921875 L 1.390625 -22.921875 L 1.390625 -23.25 L 14.125 -23.25 C 15.207031 -23.25 16.101562 -23.332031 16.8125 -23.5 C 17.519531 -23.664062 17.953125 -23.78125 18.109375 -23.84375 L 18.109375 -18.03125 L 17.765625 -18.078125 L 17.765625 -18.4375 C 17.765625 -19.8125 17.257812 -20.785156 16.25 -21.359375 C 15.757812 -21.648438 15.179688 -21.804688 14.515625 -21.828125 L 8.9375 -21.828125 L 8.9375 -12.15625 L 13.328125 -12.15625 C 14.140625 -12.175781 14.8125 -12.457031 15.34375 -13 C 15.875 -13.539062 16.140625 -14.210938 16.140625 -15.015625 L 16.140625 -15.3125 L 16.46875 -15.3125 L 16.46875 -7.640625 L 16.140625 -7.640625 L 16.140625 -7.90625 C 16.140625 -8.726562 15.878906 -9.40625 15.359375 -9.9375 C 14.835938 -10.46875 14.179688 -10.742188 13.390625 -10.765625 L 8.9375 -10.765625 L 8.9375 -1.421875 L 13.28125 -1.421875 C 14.90625 -1.421875 16.265625 -1.882812 17.359375 -2.8125 C 18.453125 -3.75 19.265625 -5.070312 19.796875 -6.78125 L 20.125 -6.78125 L 18.609375 0 L 1.390625 0 L 1.390625 -0.328125 Z M 1.828125 -0.328125 "/></g></g></g><g fill="#33443c" fill-opacity="1"><g transform="translate(164.452161, 276.16893)"><g><path d="M 1.828125 -0.328125 C 2.398438 -0.328125 2.890625 -0.53125 3.296875 -0.9375 C 3.710938 -1.351562 3.929688 -1.847656 3.953125 -2.421875 L 3.953125 -20.921875 C 3.910156 -21.503906 3.742188 -21.925781 3.453125 -22.1875 C 2.921875 -22.675781 2.378906 -22.921875 1.828125 -22.921875 L 1.390625 -22.921875 L 1.390625 -23.25 L 14.125 -23.25 C 15.207031 -23.25 16.101562 -23.332031 16.8125 -23.5 C 17.519531 -23.664062 17.953125 -23.78125 18.109375 -23.84375 L 18.109375 -18.03125 L 17.765625 -18.078125 L 17.765625 -18.4375 C 17.765625 -19.8125 17.257812 -20.785156 16.25 -21.359375 C 15.757812 -21.648438 15.179688 -21.804688 14.515625 -21.828125 L 8.9375 -21.828125 L 8.9375 -12.15625 L 13.328125 -12.15625 C 14.140625 -12.175781 14.8125 -12.457031 15.34375 -13 C 15.875 -13.539062 16.140625 -14.210938 16.140625 -15.015625 L 16.140625 -15.3125 L 16.46875 -15.3125 L 16.46875 -7.640625 L 16.140625 -7.640625 L 16.140625 -7.90625 C 16.140625 -8.726562 15.878906 -9.40625 15.359375 -9.9375 C 14.835938 -10.46875 14.179688 -10.742188 13.390625 -10.765625 L 8.9375 -10.765625 L 8.9375 -1.421875 L 13.28125 -1.421875 C 14.90625 -1.421875 16.265625 -1.882812 17.359375 -2.8125 C 18.453125 -3.75 19.265625 -5.070312 19.796875 -6.78125 L 20.125 -6.78125 L 18.609375 0 L 1.390625 0 L 1.390625 -0.328125 Z M 1.828125 -0.328125 "/></g></g></g><g fill="#33443c" fill-opacity="1"><g transform="translate(186.242597, 276.16893)"><g><path d="M 27.140625 -22.921875 C 26.367188 -22.921875 25.78125 -22.585938 25.375 -21.921875 C 25.195312 -21.640625 25.097656 -21.304688 25.078125 -20.921875 L 25.078125 -3.78125 C 25.078125 -2.300781 25.175781 -1.050781 25.375 -0.03125 L 25.484375 0.46875 L 25.1875 0.46875 L 8.40625 -15.515625 L 8.40625 -2.328125 C 8.40625 -1.773438 8.601562 -1.300781 9 -0.90625 C 9.394531 -0.519531 9.875 -0.328125 10.4375 -0.328125 L 11.0625 -0.328125 L 11.0625 0 L 1 0 L 1 -0.328125 L 1.59375 -0.328125 C 2.164062 -0.328125 2.648438 -0.519531 3.046875 -0.90625 C 3.453125 -1.300781 3.65625 -1.785156 3.65625 -2.359375 L 3.65625 -19.59375 C 3.65625 -21.0625 3.554688 -22.28125 3.359375 -23.25 L 3.28125 -23.75 L 3.59375 -23.75 L 20.359375 -7.765625 L 20.359375 -20.890625 C 20.335938 -21.472656 20.128906 -21.957031 19.734375 -22.34375 C 19.335938 -22.726562 18.859375 -22.921875 18.296875 -22.921875 L 17.703125 -22.921875 L 17.703125 -23.25 L 27.765625 -23.25 L 27.765625 -22.921875 Z M 27.140625 -22.921875 "/></g></g></g><g fill="#33443c" fill-opacity="1"><g transform="translate(215.805847, 276.16893)"><g><path d="M 1.828125 -0.328125 C 2.398438 -0.328125 2.890625 -0.53125 3.296875 -0.9375 C 3.710938 -1.351562 3.929688 -1.847656 3.953125 -2.421875 L 3.953125 -20.921875 C 3.910156 -21.503906 3.742188 -21.925781 3.453125 -22.1875 C 2.921875 -22.675781 2.378906 -22.921875 1.828125 -22.921875 L 1.390625 -22.921875 L 1.390625 -23.25 L 14.125 -23.25 C 15.207031 -23.25 16.101562 -23.332031 16.8125 -23.5 C 17.519531 -23.664062 17.953125 -23.78125 18.109375 -23.84375 L 18.109375 -18.03125 L 17.765625 -18.078125 L 17.765625 -18.4375 C 17.765625 -19.8125 17.257812 -20.785156 16.25 -21.359375 C 15.757812 -21.648438 15.179688 -21.804688 14.515625 -21.828125 L 8.9375 -21.828125 L 8.9375 -12.15625 L 13.328125 -12.15625 C 14.140625 -12.175781 14.8125 -12.457031 15.34375 -13 C 15.875 -13.539062 16.140625 -14.210938 16.140625 -15.015625 L 16.140625 -15.3125 L 16.46875 -15.3125 L 16.46875 -7.640625 L 16.140625 -7.640625 L 16.140625 -7.90625 C 16.140625 -8.726562 15.878906 -9.40625 15.359375 -9.9375 C 14.835938 -10.46875 14.179688 -10.742188 13.390625 -10.765625 L 8.9375 -10.765625 L 8.9375 -1.421875 L 13.28125 -1.421875 C 14.90625 -1.421875 16.265625 -1.882812 17.359375 -2.8125 C 18.453125 -3.75 19.265625 -5.070312 19.796875 -6.78125 L 20.125 -6.78125 L 18.609375 0 L 1.390625 0 L 1.390625 -0.328125 Z M 1.828125 -0.328125 "/></g></g></g><g fill="#33443c" fill-opacity="1"><g transform="translate(237.596283, 276.16893)"><g><path d="M 10.5625 -21.796875 L 9.140625 -21.796875 C 9.085938 -21.796875 9.050781 -21.796875 9.03125 -21.796875 L 9.03125 -2.421875 C 9.050781 -1.847656 9.265625 -1.351562 9.671875 -0.9375 C 10.085938 -0.53125 10.582031 -0.328125 11.15625 -0.328125 L 11.59375 -0.328125 L 11.59375 0 L 1.5 0 L 1.5 -0.328125 L 1.921875 -0.328125 C 2.722656 -0.328125 3.332031 -0.671875 3.75 -1.359375 C 3.925781 -1.671875 4.023438 -2.015625 4.046875 -2.390625 L 4.046875 -20.828125 C 4.023438 -21.398438 3.8125 -21.890625 3.40625 -22.296875 C 3 -22.710938 2.503906 -22.921875 1.921875 -22.921875 L 1.5 -22.921875 L 1.5 -23.25 L 12.890625 -23.25 C 15.035156 -23.25 16.851562 -22.785156 18.34375 -21.859375 C 19.09375 -21.390625 19.6875 -20.738281 20.125 -19.90625 C 20.570312 -19.082031 20.796875 -18 20.796875 -16.65625 C 20.796875 -15.320312 20.328125 -14.03125 19.390625 -12.78125 C 18.460938 -11.539062 17.113281 -10.832031 15.34375 -10.65625 C 16.632812 -10.238281 17.765625 -9.265625 18.734375 -7.734375 C 21.128906 -3.910156 22.898438 -1.628906 24.046875 -0.890625 C 24.628906 -0.535156 25.347656 -0.347656 26.203125 -0.328125 L 26.203125 0 L 22.953125 0 C 21.023438 0 19.425781 -0.253906 18.15625 -0.765625 C 16.882812 -1.273438 15.878906 -2.171875 15.140625 -3.453125 C 14.722656 -4.179688 13.804688 -6.078125 12.390625 -9.140625 C 11.765625 -10.484375 11.007812 -11.222656 10.125 -11.359375 L 10.125 -11.6875 L 11.15625 -11.6875 C 12.15625 -11.6875 13.035156 -11.984375 13.796875 -12.578125 C 14.566406 -13.179688 15.082031 -14.160156 15.34375 -15.515625 C 15.4375 -15.972656 15.484375 -16.335938 15.484375 -16.609375 C 15.484375 -18.421875 15.113281 -19.734375 14.375 -20.546875 C 13.644531 -21.359375 12.707031 -21.773438 11.5625 -21.796875 C 11.34375 -21.796875 11.007812 -21.796875 10.5625 -21.796875 Z M 10.5625 -21.796875 "/></g></g></g><g fill="#33443c" fill-opacity="1"><g transform="translate(263.239909, 276.16893)"><g><path d="M 24.40625 -22.921875 L 23.953125 -22.921875 C 23.285156 -22.921875 22.648438 -22.734375 22.046875 -22.359375 C 21.453125 -21.984375 20.976562 -21.53125 20.625 -21 L 14.078125 -10.5625 L 14.078125 -2.421875 C 14.078125 -1.847656 14.285156 -1.351562 14.703125 -0.9375 C 15.128906 -0.53125 15.628906 -0.328125 16.203125 -0.328125 L 16.609375 -0.328125 L 16.640625 0 L 6.546875 0 L 6.546875 -0.328125 L 6.96875 -0.328125 C 7.550781 -0.328125 8.046875 -0.523438 8.453125 -0.921875 C 8.859375 -1.328125 9.070312 -1.816406 9.09375 -2.390625 L 9.09375 -10.59375 L 2.75 -21.03125 C 2.414062 -21.5625 1.945312 -22.007812 1.34375 -22.375 C 0.738281 -22.738281 0.113281 -22.921875 -0.53125 -22.921875 L -1 -22.921875 L -1 -23.25 L 10 -23.25 L 10 -22.921875 L 9.5625 -22.921875 C 9.070312 -22.921875 8.695312 -22.695312 8.4375 -22.25 C 8.300781 -22.007812 8.234375 -21.769531 8.234375 -21.53125 C 8.234375 -21.300781 8.289062 -21.078125 8.40625 -20.859375 L 13.15625 -12.21875 L 18.109375 -20.859375 C 18.210938 -21.078125 18.265625 -21.300781 18.265625 -21.53125 C 18.265625 -21.769531 18.1875 -22 18.03125 -22.21875 C 17.769531 -22.6875 17.394531 -22.921875 16.90625 -22.921875 L 16.5 -22.921875 L 16.5 -23.25 L 24.40625 -23.25 Z M 24.40625 -22.921875 "/></g></g></g><g fill="#33443c" fill-opacity="1"><g transform="translate(91.741072, 302.340491)"><g><path d="M 6.359375 -11.109375 C 7.140625 -11.109375 7.898438 -10.957031 8.640625 -10.65625 C 9.378906 -10.363281 10.019531 -9.945312 10.5625 -9.40625 L 9.46875 -8.046875 C 9.070312 -8.484375 8.597656 -8.828125 8.046875 -9.078125 C 7.492188 -9.328125 6.941406 -9.453125 6.390625 -9.453125 C 5.285156 -9.453125 4.347656 -9.070312 3.578125 -8.3125 C 2.816406 -7.5625 2.4375 -6.644531 2.4375 -5.5625 C 2.4375 -4.46875 2.816406 -3.539062 3.578125 -2.78125 C 4.347656 -2.03125 5.285156 -1.65625 6.390625 -1.65625 C 7.535156 -1.65625 8.5625 -2.09375 9.46875 -2.96875 L 10.578125 -1.734375 C 10.003906 -1.179688 9.335938 -0.738281 8.578125 -0.40625 C 7.828125 -0.0820312 7.066406 0.078125 6.296875 0.078125 C 4.671875 0.078125 3.300781 -0.457031 2.1875 -1.53125 C 1.082031 -2.613281 0.53125 -3.953125 0.53125 -5.546875 C 0.53125 -7.117188 1.09375 -8.4375 2.21875 -9.5 C 3.34375 -10.570312 4.722656 -11.109375 6.359375 -11.109375 Z M 6.359375 -11.109375 "/></g></g></g><g fill="#33443c" fill-opacity="1"><g transform="translate(104.343367, 302.340491)"><g><path d="M 8.46875 0 L 6.453125 -3.359375 C 6.347656 -3.347656 6.179688 -3.34375 5.953125 -3.34375 L 3.328125 -3.34375 L 3.328125 0 L 1.453125 0 L 1.453125 -11.0625 L 5.953125 -11.0625 C 7.359375 -11.0625 8.453125 -10.734375 9.234375 -10.078125 C 10.015625 -9.421875 10.40625 -8.492188 10.40625 -7.296875 C 10.40625 -6.410156 10.207031 -5.660156 9.8125 -5.046875 C 9.414062 -4.429688 8.847656 -3.984375 8.109375 -3.703125 L 10.59375 0 Z M 3.328125 -5.015625 L 5.953125 -5.015625 C 7.742188 -5.015625 8.640625 -5.753906 8.640625 -7.234375 C 8.640625 -8.671875 7.742188 -9.390625 5.953125 -9.390625 L 3.328125 -9.390625 Z M 3.328125 -5.015625 "/></g></g></g><g fill="#33443c" fill-opacity="1"><g transform="translate(117.356754, 302.340491)"><g><path d="M 2.21875 -9.5 C 3.351562 -10.570312 4.75 -11.109375 6.40625 -11.109375 C 8.0625 -11.109375 9.453125 -10.570312 10.578125 -9.5 C 11.703125 -8.4375 12.265625 -7.113281 12.265625 -5.53125 C 12.265625 -3.945312 11.703125 -2.613281 10.578125 -1.53125 C 9.453125 -0.457031 8.0625 0.078125 6.40625 0.078125 C 4.75 0.078125 3.351562 -0.457031 2.21875 -1.53125 C 1.09375 -2.613281 0.53125 -3.945312 0.53125 -5.53125 C 0.53125 -7.113281 1.09375 -8.4375 2.21875 -9.5 Z M 6.421875 -9.4375 C 5.328125 -9.4375 4.390625 -9.054688 3.609375 -8.296875 C 2.828125 -7.546875 2.4375 -6.625 2.4375 -5.53125 C 2.4375 -4.4375 2.828125 -3.503906 3.609375 -2.734375 C 4.398438 -1.972656 5.335938 -1.59375 6.421875 -1.59375 C 7.503906 -1.59375 8.429688 -1.972656 9.203125 -2.734375 C 9.972656 -3.503906 10.359375 -4.4375 10.359375 -5.53125 C 10.359375 -6.625 9.972656 -7.546875 9.203125 -8.296875 C 8.429688 -9.054688 7.503906 -9.4375 6.421875 -9.4375 Z M 6.421875 -9.4375 "/></g></g></g><g fill="#33443c" fill-opacity="1"><g transform="translate(131.745737, 302.340491)"><g><path d="M 1.453125 -11.0625 L 5.859375 -11.0625 C 7.253906 -11.0625 8.332031 -10.734375 9.09375 -10.078125 C 9.863281 -9.421875 10.25 -8.492188 10.25 -7.296875 C 10.25 -6.035156 9.863281 -5.0625 9.09375 -4.375 C 8.332031 -3.6875 7.253906 -3.34375 5.859375 -3.34375 L 3.328125 -3.34375 L 3.328125 0 L 1.453125 0 Z M 3.328125 -9.390625 L 3.328125 -5.015625 L 5.78125 -5.015625 C 7.5625 -5.015625 8.453125 -5.753906 8.453125 -7.234375 C 8.453125 -8.671875 7.5625 -9.390625 5.78125 -9.390625 Z M 3.328125 -9.390625 "/></g></g></g><g fill="#33443c" fill-opacity="1"><g transform="translate(143.968542, 302.340491)"><g/></g></g><g fill="#33443c" fill-opacity="1"><g transform="translate(149.629635, 302.340491)"><g><path d="M 13.15625 0 L 11.4375 0 L 11.421875 -8.265625 L 7.921875 -1.15625 L 6.703125 -1.15625 L 3.203125 -8.265625 L 3.203125 0 L 1.453125 0 L 1.453125 -11.0625 L 3.671875 -11.0625 L 7.328125 -3.71875 L 10.953125 -11.0625 L 13.15625 -11.0625 Z M 13.15625 0 "/></g></g></g><g fill="#33443c" fill-opacity="1"><g transform="translate(165.836924, 302.340491)"><g><path d="M 8.609375 -2.5 L 3.015625 -2.5 L 1.953125 0 L 0.015625 0 L 4.90625 -11.0625 L 6.8125 -11.0625 L 11.65625 0 L 9.65625 0 Z M 7.890625 -4.15625 L 5.796875 -9.078125 L 3.71875 -4.15625 Z M 7.890625 -4.15625 "/></g></g></g><g fill="#33443c" fill-opacity="1"><g transform="translate(179.087478, 302.340491)"><g><path d="M 11.046875 0 L 9.21875 0 L 3.328125 -7.9375 L 3.328125 0 L 1.453125 0 L 1.453125 -11.0625 L 3.28125 -11.0625 L 9.21875 -3.109375 L 9.21875 -11.0625 L 11.046875 -11.0625 Z M 11.046875 0 "/></g></g></g><g fill="#33443c" fill-opacity="1"><g transform="translate(193.191842, 302.340491)"><g><path d="M 8.609375 -2.5 L 3.015625 -2.5 L 1.953125 0 L 0.015625 0 L 4.90625 -11.0625 L 6.8125 -11.0625 L 11.65625 0 L 9.65625 0 Z M 7.890625 -4.15625 L 5.796875 -9.078125 L 3.71875 -4.15625 Z M 7.890625 -4.15625 "/></g></g></g><g fill="#33443c" fill-opacity="1"><g transform="translate(206.442397, 302.340491)"><g><path d="M 9.03125 -5.4375 L 10.65625 -5.4375 L 10.65625 -1.359375 C 10.082031 -0.929688 9.410156 -0.582031 8.640625 -0.3125 C 7.867188 -0.0507812 7.109375 0.078125 6.359375 0.078125 C 4.722656 0.078125 3.34375 -0.457031 2.21875 -1.53125 C 1.09375 -2.613281 0.53125 -3.945312 0.53125 -5.53125 C 0.53125 -7.113281 1.097656 -8.4375 2.234375 -9.5 C 3.378906 -10.570312 4.789062 -11.109375 6.46875 -11.109375 C 7.25 -11.109375 8.015625 -10.96875 8.765625 -10.6875 C 9.523438 -10.414062 10.175781 -10.039062 10.71875 -9.5625 L 9.65625 -8.1875 C 8.75 -9.03125 7.6875 -9.453125 6.46875 -9.453125 C 5.34375 -9.453125 4.390625 -9.070312 3.609375 -8.3125 C 2.828125 -7.550781 2.4375 -6.625 2.4375 -5.53125 C 2.4375 -4.425781 2.828125 -3.492188 3.609375 -2.734375 C 4.398438 -1.972656 5.359375 -1.59375 6.484375 -1.59375 C 7.335938 -1.59375 8.1875 -1.847656 9.03125 -2.359375 Z M 9.03125 -5.4375 "/></g></g></g><g fill="#33443c" fill-opacity="1"><g transform="translate(219.866874, 302.340491)"><g><path d="M 9.359375 -9.390625 L 3.328125 -9.390625 L 3.328125 -6.40625 L 8.734375 -6.40625 L 8.734375 -4.734375 L 3.328125 -4.734375 L 3.328125 -1.671875 L 9.546875 -1.671875 L 9.546875 0 L 1.453125 0 L 1.453125 -11.0625 L 9.359375 -11.0625 Z M 9.359375 -9.390625 "/></g></g></g><g fill="#33443c" fill-opacity="1"><g transform="translate(231.820903, 302.340491)"><g><path d="M 13.15625 0 L 11.4375 0 L 11.421875 -8.265625 L 7.921875 -1.15625 L 6.703125 -1.15625 L 3.203125 -8.265625 L 3.203125 0 L 1.453125 0 L 1.453125 -11.0625 L 3.671875 -11.0625 L 7.328125 -3.71875 L 10.953125 -11.0625 L 13.15625 -11.0625 Z M 13.15625 0 "/></g></g></g><g fill="#33443c" fill-opacity="1"><g transform="translate(248.028201, 302.340491)"><g><path d="M 9.359375 -9.390625 L 3.328125 -9.390625 L 3.328125 -6.40625 L 8.734375 -6.40625 L 8.734375 -4.734375 L 3.328125 -4.734375 L 3.328125 -1.671875 L 9.546875 -1.671875 L 9.546875 0 L 1.453125 0 L 1.453125 -11.0625 L 9.359375 -11.0625 Z M 9.359375 -9.390625 "/></g></g></g><g fill="#33443c" fill-opacity="1"><g transform="translate(259.98223, 302.340491)"><g><path d="M 11.046875 0 L 9.21875 0 L 3.328125 -7.9375 L 3.328125 0 L 1.453125 0 L 1.453125 -11.0625 L 3.28125 -11.0625 L 9.21875 -3.109375 L 9.21875 -11.0625 L 11.046875 -11.0625 Z M 11.046875 0 "/></g></g></g><g fill="#33443c" fill-opacity="1"><g transform="translate(274.086594, 302.340491)"><g><path d="M 9.015625 -9.390625 L 5.5 -9.390625 L 5.5 0 L 3.640625 0 L 3.640625 -9.390625 L 0.140625 -9.390625 L 0.140625 -11.0625 L 9.015625 -11.0625 Z M 9.015625 -9.390625 "/></g></g></g></svg>